<?xml version="1.0" encoding="utf-8"?>
<!-- Generator: Adobe Illustrator 24.3.0, SVG Export Plug-In . SVG Version: 6.00 Build 0)  -->
<svg version="1.1" id="Слой_1" xmlns="http://www.w3.org/2000/svg" xmlns:xlink="http://www.w3.org/1999/xlink" x="0px" y="0px"
	 viewBox="0 0 60 60" style="enable-background:new 0 0 60 60;" xml:space="preserve">
<style type="text/css">
	.st0{fill:#25AAE1;}
	.st1{fill:#FFFFFF;}
</style>
<path class="st0" d="M54,0C54,0,53.9,0,54,0H6.1C2.8,0,0,2.7,0,6c0,0,0,0.1,0,0.1v47.8C0,57.2,2.7,60,6,60c0,0,0.1,0,0.1,0h47.8
	c3.3,0,6.1-2.7,6.1-6c0,0,0-0.1,0-0.1V6.1C60,2.8,57.3,0,54,0z"/>
<path class="st1" d="M27.4,4.4c-8.6,1-17.1,7.9-17.5,17.8c-0.2,6,1.5,10.6,7.2,11.9c2.5-4.4-0.8-5.4-1.3-8.6
	C13.8,12.4,31,3.5,39.9,12.6c6.2,6.3,2.1,25.7-7.9,23.7c-9.6-1.9,4.7-17.4-3-20.4c-6.2-2.5-9.5,7.5-6.6,12.5
	c-1.7,8.6-5.5,16.6-4,27.3c4.9-3.6,6.5-10.4,7.9-17.5c2.5,1.5,3.8,3.1,6.9,3.3c11.6,0.9,18.1-11.6,16.5-23.1
	C48.4,8.4,38.2,3.2,27.4,4.4z"/>
</svg>
