<?xml version="1.0" encoding="utf-8"?>
<!-- Generator: Adobe Illustrator 24.3.0, SVG Export Plug-In . SVG Version: 6.00 Build 0)  -->
<svg version="1.1" id="Слой_1" xmlns="http://www.w3.org/2000/svg" xmlns:xlink="http://www.w3.org/1999/xlink" x="0px" y="0px"
	 viewBox="0 0 60 60" style="enable-background:new 0 0 60 60;" xml:space="preserve">
<style type="text/css">
	.st0{fill:#25AAE1;}
</style>
<path class="st0" d="M60,6.4c0-3.5-2.7-6.2-6.2-6.2c-15.9,0-31.8,0-47.7,0C2.7,0.2,0,2.9,0,6.3c0,15.9,0,31.8,0,47.7
	c0,0.3,0,0.6,0,0.8c0.5,3.2,3,5.3,6.2,5.3c15.9,0,31.7,0,47.6,0c3.6,0,6.2-2.6,6.2-6.2c0-7.9,0-15.8,0-23.8C60,22.3,60,14.3,60,6.4z
	 M51.8,18.1c-0.7,0.7-1.4,1.3-2.2,1.9c-0.2,0.2-0.4,0.4-0.3,0.7c0.1,4.6-0.8,8.9-2.8,13c-3.4,7.1-8.6,12.1-16.1,14.7
	c-2.3,0.8-4.6,1.2-7.1,1.4c-4.9,0.4-9.5-0.4-14-2.4c-1.2-0.5-2.3-1.2-3.5-1.9c5.3,0.4,10.1-0.9,14.5-4.2c-4.6-0.4-7.6-2.7-9.3-7
	c1.5,0.3,2.9,0.2,4.4-0.2c-5.5-1.4-7.9-6.2-7.8-9.8c0.7,0.3,1.4,0.6,2.1,0.8c0.7,0.2,1.4,0.3,2.2,0.4c-2-1.6-3.4-3.6-4-6.1
	c-0.5-2.5-0.2-4.9,1.1-7.1c5.4,6.3,12.2,9.8,20.4,10.4c0-1.1-0.2-2.1-0.1-3.1c0.4-4,2.5-6.9,6.3-8.4c3.9-1.5,7.5-0.7,10.6,2.2
	c0.2,0.2,0.4,0.2,0.7,0.2c1.9-0.4,3.7-1.1,5.4-2c0.1-0.1,0.3-0.1,0.5-0.3c-0.8,2.3-2.2,4-4.1,5.3c0,0,0,0.1,0,0.1
	c0.9-0.2,1.8-0.4,2.7-0.6c0.9-0.2,1.7-0.6,2.7-0.8C53.4,16.3,52.6,17.2,51.8,18.1z"/>
</svg>
