<?xml version="1.0" encoding="utf-8"?>
<!-- Generator: Adobe Illustrator 24.3.0, SVG Export Plug-In . SVG Version: 6.00 Build 0)  -->
<svg version="1.1" id="Слой_1" xmlns="http://www.w3.org/2000/svg" xmlns:xlink="http://www.w3.org/1999/xlink" x="0px" y="0px"
	 viewBox="0 0 60 60" style="enable-background:new 0 0 60 60;" xml:space="preserve">
<style type="text/css">
	.st0{fill:#25AAE1;}
</style>
<path class="st0" d="M60,6.4c0-3.5-2.7-6.2-6.2-6.2c-15.9,0-31.8,0-47.7,0C2.7,0.2,0,2.9,0,6.3c0,15.9,0,31.8,0,47.7
	c0,0.3,0,0.6,0,0.8c0.5,3.2,3,5.3,6.2,5.3c15.9,0,31.7,0,47.6,0c3.6,0,6.2-2.6,6.2-6.2c0-7.9,0-15.8,0-23.8C60,22.3,60,14.3,60,6.4z
	 M18,51.1c-3,0-5.9,0-8.9,0c0-9,0-17.9,0-26.9c3,0,5.9,0,8.9,0C18,33.2,18,42.2,18,51.1z M13.5,19.1c-3-0.1-5.4-2.4-5.3-5.4
	c0-3.1,2.3-5.3,5.4-5.4c3.1,0,5.4,2.4,5.4,5.4C18.9,16.7,16.4,19.1,13.5,19.1z M51,51.1c-3,0-5.9,0-9,0c0-0.3,0-0.5,0-0.6
	c0-5,0-9.9,0-14.9c0-2.2-1.2-3.9-3.2-4.6c-1.9-0.6-4.1,0.2-5.1,2c-0.5,0.8-0.7,1.8-0.7,2.7c0,4.9,0,9.9,0,14.8c0,0.2,0,0.4,0,0.7
	c-3,0-6,0-9,0c0-9,0-17.9,0-26.9c3,0,5.9,0,9,0c0,1.1,0,2.2,0,3.1c0.6-0.5,1.2-1.1,1.9-1.6c3.1-2.5,7-2.8,10.5-0.9
	c2.9,1.6,4.7,4,5.3,7.2c0.1,0.7,0.2,1.4,0.2,2.1c0,5.5,0,11,0,16.4C51,50.8,51,51,51,51.1z"/>
</svg>
