<?xml version="1.0" encoding="utf-8"?>
<!-- Generator: Adobe Illustrator 16.0.0, SVG Export Plug-In . SVG Version: 6.00 Build 0)  -->
<!DOCTYPE svg PUBLIC "-//W3C//DTD SVG 1.1//EN" "http://www.w3.org/Graphics/SVG/1.1/DTD/svg11.dtd">
<svg version="1.1" id="Layer_1" xmlns="http://www.w3.org/2000/svg" xmlns:xlink="http://www.w3.org/1999/xlink" x="0px" y="0px"
	 width="469px" height="435px" viewBox="0 0 469 435" enable-background="new 0 0 469 435" xml:space="preserve">
<g>
	<path fill="#000000" d="M210.072,328.066c26.76-0.072,53.481,0.063,80.216-0.096c11.438-0.058,15.059-3.439,15.516-14.589
		c0.345-8.541,0.48-17.162,0.08-25.729c-0.416-9.27-4.431-13.06-13.596-13.604c-3.6-0.271-7.245-0.104-10.862-0.104
		c-34.004,0.039-68.01-0.328-101.999,0.23c-26.153,0.465-43.157-20.073-42.284-42.274c0.536-14.188-0.263-28.392,0.032-42.563
		c0.112-5.223,0.879-10.645,2.704-15.435c6.549-17.239,19.602-25.74,39.396-25.785c89.876-0.16,181.44-0.522,281.457,0.044
		c-4.334-27.28-22.105-47.874-48.307-56.159c-13.498-4.294-27.382-3.691-41.202-3.815c-16.795-0.132-33.573,0.02-50.784,0.064
		c-0.385-5.146-0.654-9.689-1.119-14.28c-3.969-36.504-28.712-61.085-65.261-64.168c-5.759-0.488-11.563-0.656-17.354-0.736V9
		c-0.609,0-1.2,0.024-1.791,0.036C234.306,9.024,233.715,9,233.123,9v0.068c-5.809,0.08-11.613,0.248-17.372,0.736
		c-36.541,3.083-61.292,27.664-65.245,64.168c-0.471,4.591-0.735,9.133-1.151,14.28c-17.193-0.044-33.973-0.196-50.753-0.064
		c-13.836,0.124-27.701-0.479-41.203,3.815c-29.318,9.269-48.201,33.854-49.394,66.047c0.08,0,0.146,0,0.224,0.012
		c-0.751,10.049-1.424,28.804-0.224,59.29c-0.071,36.988-0.119,73.978-0.191,110.967c1.647,0.057,3.016,0.096,4.215,0.096
		C78.049,328.29,144.061,328.146,210.072,328.066z M211.12,44.492c7.878-0.735,15.836-1.068,23.794-1.136
		c7.957,0.068,15.898,0.4,23.784,1.136c19.082,1.768,30.054,18.431,28.565,40.416c-17.594,0.028-35.013,0.048-52.351,0.072
		c-17.356-0.024-34.769-0.044-52.369-0.072C181.074,62.923,192.03,46.259,211.12,44.492z"/>
	<path fill="#25AAE1" d="M462.459,188.508h-256.21c-9.221,0.145-12.708,3.151-13.036,11.246c-0.303,7.605-0.16,15.211,0.4,22.769
		c0.64,8.581,2.096,10.061,11.118,10.229c21.425,0.368,42.849,0.272,64.26,0.368c18.129,0.136,36.245,0.136,54.391,0.4
		c11.189,0.215,20.042,5.302,27.576,13.508c8.687,9.412,11.309,20.641,11.348,32.83c0.072,14.476-0.438,29.03-0.039,43.506
		c0.735,25.896-19.267,45.347-44.563,45.059l-285.009,0.456H8.678c2.583,17.866,11.077,32.927,25.705,44.994
		c10.646,8.717,22.721,14.619,36.917,14.916c16.138,0.288,32.261,0.783,48.402,0.847c37.819,0.146,75.616,0.104,113.421,0.146
		c0.591,0,1.182,0,1.792,0c0.591,0,1.182,0,1.791,0c37.795-0.04,75.593,0,113.422-0.146c16.123-0.063,32.253-0.559,48.394-0.847
		c14.188-0.297,26.264-6.199,36.907-14.916c17.853-14.699,26.712-33.829,26.632-57.078c-0.144-46.474-0.158-92.972-0.264-139.438
		C462.245,206.198,462.429,196.65,462.459,188.508z"/>
	<path fill="#FFFFFF" d="M317.703,368.422c25.297,0.288,45.299-19.161,44.563-45.059c-0.399-14.476,0.111-29.03,0.039-43.506
		c-0.039-12.189-2.661-23.418-11.348-32.83c-7.534-8.206-16.387-13.293-27.576-13.508c-18.146-0.266-36.262-0.266-54.391-0.4
		c-21.411-0.096-42.835,0-64.26-0.368c-9.021-0.168-10.479-1.646-11.118-10.229c-0.561-7.558-0.703-15.163-0.4-22.769
		c0.328-8.095,3.815-11.102,13.036-11.246h256.21c0.049-14.156-0.399-24.068-0.879-30.442c0.071-0.011,0.144-0.011,0.216-0.011
		c-0.119-3.4-0.543-6.668-1.063-9.89c-100.018-0.567-191.582-0.204-281.458-0.044c-19.794,0.044-32.848,8.547-39.396,25.785
		c-1.825,4.79-2.592,10.212-2.704,15.436c-0.295,14.17,0.503,28.374-0.032,42.563c-0.872,22.201,16.131,42.739,42.284,42.275
		c33.989-0.561,67.995-0.192,101.999-0.231c3.617,0,7.264-0.168,10.862,0.104c9.165,0.544,13.18,4.335,13.596,13.604
		c0.4,8.565,0.265,17.188-0.08,25.729c-0.457,11.147-4.078,14.53-15.516,14.588c-26.734,0.159-53.456,0.022-80.216,0.096
		c-66.011,0.08-132.022,0.224-198.043,0.352c-1.2,0-2.567-0.039-4.214-0.096c-0.024,9.484-0.024,18.979-0.057,28.472
		c-0.008,4.166,0.368,8.174,0.919,12.084h24.018L317.703,368.422z"/>
</g>
</svg>
