<?xml version="1.0" encoding="utf-8"?>
<!-- Generator: Adobe Illustrator 24.3.0, SVG Export Plug-In . SVG Version: 6.00 Build 0)  -->
<svg version="1.1" id="Слой_1" xmlns="http://www.w3.org/2000/svg" xmlns:xlink="http://www.w3.org/1999/xlink" x="0px" y="0px"
	 viewBox="0 0 60 60" style="enable-background:new 0 0 60 60;" xml:space="preserve">
<style type="text/css">
	.st0{fill:#25AAE1;}
</style>
<g>
	<path class="st0" d="M44,0H16C7.2,0,0,7.2,0,16V44c0,8.8,7.2,16,16,16H44c8.8,0,16-7.2,16-16V16C60,7.2,52.8,0,44,0z M55.9,44
		c0,6.6-5.3,11.9-11.9,11.9H16C9.4,55.9,4.1,50.6,4.1,44V16C4.1,9.4,9.4,4.1,16,4.1H44c6.6,0,11.9,5.3,11.9,11.9V44z"/>
	<path class="st0" d="M46.7,10.8c-1.5,0-2.8,1.2-2.8,2.8c0,1.5,1.2,2.8,2.8,2.8c1.5,0,2.8-1.2,2.8-2.8C49.4,12,48.2,10.8,46.7,10.8z
		"/>
	<path class="st0" d="M29.4,15.5c-8.5,0-15.5,6.9-15.5,15.5c0,8.5,6.9,15.5,15.5,15.5S44.8,39.5,44.8,31
		C44.8,22.4,37.9,15.5,29.4,15.5z M29.4,42.4c-6.3,0-11.4-5.1-11.4-11.4c0-6.3,5.1-11.4,11.4-11.4S40.8,24.7,40.8,31
		C40.8,37.3,35.7,42.4,29.4,42.4z"/>
</g>
</svg>
