<?xml version="1.0" encoding="utf-8"?>
<!-- Generator: Adobe Illustrator 24.3.0, SVG Export Plug-In . SVG Version: 6.00 Build 0)  -->
<svg version="1.1" id="Слой_1" xmlns="http://www.w3.org/2000/svg" xmlns:xlink="http://www.w3.org/1999/xlink" x="0px" y="0px"
	 viewBox="0 0 60 60" style="enable-background:new 0 0 60 60;" xml:space="preserve">
<style type="text/css">
	.st0{fill:#25AAE1;}
	.st1{fill:#FFFFFF;}
</style>
<path class="st0" d="M54,0C54,0,53.9,0,54,0H6.1C2.8,0,0,2.7,0,6c0,0,0,0.1,0,0.1v47.8C0,57.2,2.7,60,6,60c0,0,0.1,0,0.1,0h47.8
	c3.3,0,6.1-2.7,6.1-6c0,0,0-0.1,0-0.1V6.1C60,2.8,57.3,0,54,0z"/>
<g>
	<path class="st1" d="M39.6,5.7c0.1,1.2,0.2,2.4,0.6,3.5c0.2,0.6,0.4,1.1,0.7,1.6c0.7,1.6,2,2.8,3.3,3.9c1.5,1.3,3.4,2,5.3,2.4
		c0.6,0.1,1.2,0.2,1.8,0.3c0,2.7,0,5.5,0,8.3c-0.4,0-0.8,0-1.1-0.1c-0.9-0.1-1.9-0.2-2.8-0.4c-1.1-0.2-2.1-0.5-3.1-0.9
		c-0.9-0.4-1.8-0.8-2.7-1.2c-0.6-0.3-1.1-0.6-1.6-0.9c-0.1,0-0.1-0.1-0.3-0.1c0,0.1,0,0.2,0,0.3c0,5.8,0,11.7-0.1,17.5
		c0,1.1-0.2,2.1-0.5,3.2c-0.2,0.5-0.3,1-0.5,1.5c-0.2,0.6-0.5,1.2-0.8,1.8c-0.4,0.6-0.7,1.3-1.2,1.9c-1.1,1.6-2.5,2.9-4.2,3.9
		c-0.5,0.3-1,0.6-1.5,0.9c-1,0.5-2.1,0.8-3.2,1.1c-1.6,0.4-3.3,0.4-4.9,0.4c-1.5-0.1-2.9-0.4-4.2-1c-0.8-0.3-1.5-0.7-2.3-1.1
		c-0.9-0.5-1.8-1.2-2.6-1.9c-0.5-0.5-1.1-1-1.5-1.5c-0.7-0.8-1.3-1.7-1.8-2.6c-0.4-0.7-0.7-1.5-1-2.2c-0.3-0.8-0.4-1.6-0.6-2.4
		c-0.3-1.6-0.3-3.2-0.1-4.9c0.1-0.8,0.4-1.6,0.6-2.4c0.5-1.7,1.3-3.3,2.4-4.7c1.2-1.6,2.7-3,4.5-4c1.4-0.8,2.9-1.5,4.6-1.8
		c0.8-0.2,1.6-0.3,2.4-0.3c0.9,0,1.9,0.1,2.8,0.2c0.1,0,0.2,0.1,0.2,0.2c0,2.7,0,5.4,0.1,8.2c0,0,0,0,0,0.1c-0.2,0-0.3-0.1-0.5-0.1
		c-0.7-0.1-1.3-0.3-2-0.2c-0.6,0.1-1.1,0.2-1.7,0.3c-1.5,0.4-2.7,1.4-3.6,2.6c-0.4,0.5-0.7,1.1-0.9,1.8c-0.4,1.1-0.4,2.2-0.4,3.3
		c0,0.6,0.3,1.3,0.5,1.9c0.7,1.7,2,2.8,3.6,3.6c1.1,0.5,2.2,0.7,3.4,0.6c0.8-0.1,1.7-0.3,2.5-0.6c1.3-0.6,2.3-1.5,3.1-2.7
		c0.4-0.6,0.6-1.2,0.8-1.9c0.2-0.6,0.1-1.1,0.1-1.7c0-11.1,0.1-22.2,0.1-33.3c0-0.4,0-0.4,0.4-0.4c1.8,0,3.5,0,5.3,0
		C37.8,5.5,38.7,5.6,39.6,5.7z"/>
</g>
</svg>
